<svg width="86" height="71" viewBox="0 0 86 71" fill="none" xmlns="http://www.w3.org/2000/svg">
<path d="M74.7204 51.9568C71.3966 36.4896 61.7233 22.457 45.9944 17.8569C30.157 13.2013 15.5485 20.8767 8.29386 35.0656C8.29386 35.0656 8.34966 34.9564 8.45825 35.012C10.8774 33.4953 13.4112 31.4865 16.414 31.5074C18.0519 31.5188 18.1363 33.7648 16.4954 34.0272C14.0883 34.4486 12.274 35.5861 10.2952 36.7772C9.19421 37.5911 7.4854 39.0579 5.96214 38.5544C4.43887 38.051 4.62139 36.3545 4.58069 35.0946C4.55811 32.1918 4.53554 29.289 4.78594 26.3881C4.85383 25.1838 6.54753 25.086 6.75263 26.2923C7.05725 28.3755 7.03308 30.566 7.06472 32.6473C7.0617 32.9211 7.05868 33.195 7.05566 33.4688C11.7509 18.6597 29.1917 11.6064 43.6824 14.6097C61.66 18.2943 73.3904 33.9294 77.1863 51.1524C77.6055 52.7435 75.0838 53.6571 74.7204 51.9568Z" fill="#FFC804"/>
</svg>
