<svg width="112" height="114" viewBox="0 0 112 114" fill="none" xmlns="http://www.w3.org/2000/svg">
<path d="M21.3046 21.5503C42.9312 19.8891 65.1476 27.1333 77.3263 46.0145C89.6203 65.0169 85.2269 87.2113 69.4047 102.279C69.4047 102.279 69.5264 102.163 69.4111 102.042C70.4615 98.2707 72.1141 94.157 70.916 90.2182C70.2625 88.0697 67.2773 88.8343 67.5721 91.0936C67.9566 94.4218 67.1688 97.2502 66.3746 100.316C65.7341 102.08 64.4722 104.898 65.7279 106.704C66.9835 108.51 69.1423 107.609 70.8143 107.171C74.6386 106.069 78.4629 104.967 82.1784 103.507C83.735 102.948 83.2032 100.684 81.5376 100.884C78.6806 101.296 75.8107 102.182 73.0626 102.952C72.7039 103.062 72.3451 103.173 71.9864 103.284C89.6216 91.3387 92.0931 65.6638 82.496 47.7875C70.6439 25.5935 45.5191 16.2701 21.4006 17.9954C19.1457 18.0646 18.928 21.7354 21.3046 21.5503Z" fill="#FFC804"/>
</svg>
