<svg width="122" height="101" viewBox="0 0 122 101" fill="none" xmlns="http://www.w3.org/2000/svg">
<path d="M29.6439 66.1792C24.0463 62.3747 18.6753 58.6649 13.0777 54.8605C31.2203 55.3909 49.345 55.3267 67.556 54.4182C85.5405 53.415 103.507 51.8174 120.247 42.9572C122.233 42.0254 121.132 38.9244 119.146 39.8562C100.924 47.8041 82.1554 48.7733 63.2644 49.398C48.1725 49.8478 33.185 50.0476 18.1794 49.6529C21.698 47.5999 25.0943 45.2023 28.5949 42.5548C31.2249 40.7178 28.9551 35.9547 26.0985 37.6971C18.957 42.0531 11.8155 46.409 4.67404 50.765C2.91475 51.7915 2.09795 54.3855 3.92904 55.7369C11.3577 60.8928 18.8908 65.7988 26.3195 70.9547C28.9528 72.9346 32.2772 68.1591 29.6439 66.1792Z" fill="#FFC804"/>
</svg>
