<svg width="118" height="118" viewBox="0 0 118 118" fill="none" xmlns="http://www.w3.org/2000/svg">
<circle cx="59" cy="59.0002" r="52.5" fill="white" stroke="#FFC804" stroke-width="13"/>
<path d="M69.8048 47.6238C68.8587 47.6238 67.9694 48.0092 67.3002 48.7088L54.194 62.4296L50.7009 58.7789C50.0321 58.0797 49.1429 57.6946 48.197 57.6946C47.251 57.6946 46.3618 58.0797 45.6928 58.7787C45.0241 59.4777 44.6559 60.4072 44.6559 61.3958C44.6559 62.3843 45.0241 63.3138 45.6928 64.0126L51.6906 70.2815C52.3594 70.9806 53.2486 71.3658 54.1946 71.3658C55.1402 71.3658 56.0297 70.9805 56.6993 70.2808L72.3088 53.9423C73.6892 52.4991 73.6891 50.1509 72.3088 48.7077C71.64 48.0088 70.7507 47.6238 69.8048 47.6238Z" fill="#FFC804"/>
</svg>
