<svg width="222" height="141" viewBox="0 0 222 141" fill="none" xmlns="http://www.w3.org/2000/svg">
<rect x="3.74407" y="61.8937" width="199.532" height="78" rx="9" transform="rotate(-16.9436 3.74407 61.8937)" fill="white" stroke="#FF6305" stroke-width="6"/>
<path d="M30.7236 69.0257L35.2116 83.7572L32.8967 84.4625L31.0886 78.5278C30.9216 78.8853 30.67 79.1919 30.334 79.4476C30.0076 79.685 29.6831 79.8529 29.3605 79.9512C28.4064 80.2419 27.5898 80.1533 26.9107 79.6856C26.2413 79.1996 25.7528 78.4515 25.445 77.4413L23.5472 71.212L25.8622 70.5067L27.7023 76.5467C27.8519 77.0377 28.0963 77.3619 28.4355 77.5192C28.7748 77.6765 29.1268 77.6996 29.4916 77.5884C29.8563 77.4773 30.1055 77.2634 30.239 76.9467C30.3823 76.6118 30.3791 76.1988 30.2295 75.7077L28.4086 69.7309L30.7236 69.0257ZM36.6354 74.0091L39.8132 73.041L40.4544 75.1455L37.2766 76.1136L38.5909 80.4279L42.5895 79.2097L43.2306 81.3142L36.9171 83.2376L32.4291 68.5061L38.7426 66.5827L39.3837 68.6872L35.3852 69.9053L36.6354 74.0091ZM49.7051 73.3391L50.3014 75.2963C50.6647 76.4889 50.65 77.4976 50.2574 78.3225C49.8745 79.1291 49.1148 79.7055 47.9784 80.0517C46.842 80.398 45.8829 80.3451 45.1013 79.8933C44.3295 79.4232 43.7619 78.5918 43.3986 77.3993L41.0648 69.7389C40.7015 68.5463 40.7113 67.5468 41.0942 66.7402C41.4868 65.9153 42.2514 65.3297 43.3878 64.9835C44.5242 64.6373 45.4784 64.6992 46.2502 65.1694C47.0318 65.6212 47.6043 66.4434 47.9676 67.6359L48.4036 69.067L46.2149 69.7338L45.734 68.1554C45.5716 67.6223 45.3461 67.2847 45.0575 67.1426C44.7787 66.9822 44.4568 66.9576 44.0921 67.0688C43.7273 67.1799 43.4668 67.3819 43.3108 67.6748C43.1644 67.9493 43.1725 68.3532 43.3349 68.8863L45.7584 76.8413C45.9208 77.3745 46.1393 77.7142 46.4139 77.8606C46.7025 78.0026 47.0292 78.0181 47.394 77.907C47.7587 77.7958 48.0143 77.603 48.1606 77.3284C48.321 77.0496 48.32 76.6436 48.1576 76.1104L47.5164 74.0059L49.7051 73.3391ZM47.6216 63.8776L54.7769 61.6977L55.4181 63.8022L52.9979 64.5396L56.8448 77.1666L54.5298 77.8718L50.6829 65.2448L48.2628 65.9821L47.6216 63.8776ZM62.5994 75.4134L60.2845 76.1186L55.7965 61.3871L58.1114 60.6819L60.0348 66.9954L62.6655 66.1939L60.742 59.8804L63.0991 59.1623L67.5871 73.8939L65.2301 74.612L63.3066 68.2984L60.676 69.0999L62.5994 75.4134ZM76.7576 71.1L74.4216 71.8117L73.2075 69.2608L70.3664 70.1263L70.7808 72.9209L68.6553 73.5684L66.5243 58.1188L69.9126 57.0866L76.7576 71.1ZM70.052 68.0373L72.2828 67.3577L68.8977 60.2476L70.052 68.0373ZM77.4148 70.8998C77.4415 70.585 77.4284 70.2901 77.3752 70.0149C77.3178 69.7258 77.2335 69.3988 77.1224 69.034L76.4299 66.7612C76.1948 65.9895 76.1013 65.3051 76.1493 64.7078C76.2071 64.0923 76.4943 63.5755 77.0109 63.1574C75.8554 62.9882 75.0469 62.1459 74.5852 60.6307L74.2326 59.4732C73.8864 58.3368 73.8944 57.4067 74.2565 56.6831C74.6327 55.9552 75.4241 55.4075 76.6307 55.0399L80.1242 53.9756L84.6122 68.7071L82.2972 69.4124L80.47 63.4145L79.6703 63.6582C79.1371 63.8206 78.794 64.0784 78.641 64.4317C78.488 64.785 78.5162 65.3053 78.7256 65.9928L79.4309 68.3077C79.5207 68.6024 79.5884 68.85 79.6343 69.0507C79.6941 69.2472 79.7292 69.4128 79.7396 69.5476C79.7641 69.6781 79.7751 69.7898 79.7727 69.8825C79.7703 69.9752 79.77 70.075 79.7718 70.1817L77.4148 70.8998ZM77.335 57.1251C76.9281 57.2491 76.6628 57.4603 76.539 57.7586C76.4293 58.0527 76.4557 58.4663 76.6181 58.9994L77.0605 60.4515C77.24 61.0408 77.4832 61.4113 77.7901 61.5632C78.111 61.7107 78.489 61.7182 78.9239 61.5857L79.8288 61.31L78.4504 56.7853L77.335 57.1251ZM88.492 51.4263C89.6565 51.0715 90.6134 51.1173 91.3627 51.5636C92.126 52.0057 92.6893 52.823 93.0526 54.0156L93.636 55.9307C93.9994 57.1232 93.9874 58.1158 93.6003 58.9084C93.2271 59.6966 92.4583 60.2682 91.2938 60.6229L90.1995 60.9563L91.8857 66.4912L89.5708 67.1964L85.0827 52.4649L88.492 51.4263ZM88.0388 53.8642L89.5584 58.8518L90.6527 58.5184C91.0175 58.4073 91.2682 58.2236 91.4047 57.9674C91.5413 57.7111 91.5284 57.3164 91.366 56.7832L90.6928 54.5735C90.5303 54.0404 90.321 53.7055 90.0647 53.5689C89.8085 53.4324 89.498 53.4196 89.1332 53.5308L88.0388 53.8642ZM104.996 62.4971L102.66 63.2088L101.446 60.6579L98.6046 61.5235L99.019 64.318L96.8934 64.9656L94.7625 49.516L98.1507 48.4837L104.996 62.4971ZM98.2901 59.4344L100.521 58.7548L97.1359 51.6447L98.2901 59.4344ZM111.114 54.6307L111.71 56.5879C112.073 57.7804 112.059 58.7892 111.666 59.6141C111.283 60.4207 110.524 60.9971 109.387 61.3433C108.251 61.6895 107.292 61.6367 106.51 61.1849C105.738 60.7147 105.171 59.8834 104.807 58.6908L102.474 51.0305C102.11 49.8379 102.12 48.8383 102.503 48.0317C102.896 47.2068 103.66 46.6213 104.797 46.275C105.933 45.9288 106.887 45.9908 107.659 46.4609C108.441 46.9127 109.013 47.7349 109.376 48.9275L109.812 50.3586L107.624 51.0253L107.143 49.447C106.98 48.9138 106.755 48.5762 106.466 48.4342C106.187 48.2738 105.866 48.2492 105.501 48.3603C105.136 48.4714 104.876 48.6734 104.719 48.9663C104.573 49.2409 104.581 49.6447 104.744 50.1779L107.167 58.1329C107.33 58.666 107.548 59.0058 107.823 59.1521C108.111 59.2942 108.438 59.3096 108.803 59.1985C109.167 59.0874 109.423 58.8945 109.569 58.62C109.73 58.3411 109.729 57.9351 109.566 57.402L108.925 55.2975L111.114 54.6307ZM119.232 52.1575L119.828 54.1147C120.191 55.3073 120.177 56.316 119.784 57.1409C119.401 57.9475 118.642 58.5239 117.505 58.8701C116.369 59.2163 115.41 59.1635 114.628 58.7117C113.856 58.2416 113.289 57.4102 112.925 56.2177L110.592 48.5573C110.228 47.3647 110.238 46.3652 110.621 45.5586C111.013 44.7337 111.778 44.1481 112.914 43.8019C114.051 43.4557 115.005 43.5176 115.777 43.9877C116.558 44.4396 117.131 45.2618 117.494 46.4543L117.93 47.8854L115.742 48.5522L115.261 46.9738C115.098 46.4407 114.873 46.1031 114.584 45.961C114.305 45.8006 113.984 45.776 113.619 45.8871C113.254 45.9983 112.994 46.2003 112.837 46.4931C112.691 46.7677 112.699 47.1716 112.862 47.7047L115.285 55.6597C115.448 56.1929 115.666 56.5326 115.941 56.6789C116.229 56.821 116.556 56.8365 116.921 56.7253C117.285 56.6142 117.541 56.4214 117.687 56.1468C117.848 55.8679 117.847 55.462 117.684 54.9288L117.043 52.8243L119.232 52.1575ZM121.231 41.4522C122.396 41.0974 123.352 41.1432 124.102 41.5896C124.865 42.0316 125.428 42.8489 125.792 44.0415L126.375 45.9566C126.738 47.1491 126.726 48.1417 126.339 48.9343C125.966 49.7226 125.197 50.2941 124.033 50.6489L122.938 50.9823L124.625 56.5171L122.31 57.2224L117.822 42.4908L121.231 41.4522ZM120.778 43.8901L122.297 48.8778L123.392 48.5444C123.756 48.4332 124.007 48.2495 124.144 47.9933C124.28 47.737 124.267 47.3423 124.105 46.8092L123.432 44.5994C123.269 44.0663 123.06 43.7314 122.804 43.5949C122.547 43.4583 122.237 43.4456 121.872 43.5567L120.778 43.8901ZM131.336 50.7697C131.498 51.3029 131.719 51.6496 131.998 51.81C132.287 51.9521 132.613 51.9675 132.978 51.8564C133.343 51.7453 133.598 51.5524 133.745 51.2778C133.901 50.985 133.898 50.572 133.735 50.0388L131.312 42.0838C131.149 41.5507 130.924 41.2131 130.635 41.071C130.356 40.9106 130.034 40.886 129.67 40.9972C129.305 41.1083 129.044 41.3103 128.888 41.6032C128.742 41.8777 128.75 42.2816 128.913 42.8147L131.336 50.7697ZM126.642 43.6673C126.279 42.4747 126.303 41.4709 126.714 40.6557C127.121 39.8266 127.892 39.2389 129.029 38.8926C130.165 38.5464 131.133 38.6041 131.933 39.0657C132.729 39.5133 133.308 40.3333 133.671 41.5259L136.005 49.1862C136.369 50.3788 136.347 51.3897 135.94 52.2188C135.529 53.034 134.756 53.6147 133.619 53.9609C132.483 54.3071 131.517 54.2564 130.721 53.8089C129.921 53.3473 129.34 52.5202 128.976 51.3277L126.642 43.6673ZM141.128 35.3905L145.616 50.1221L143.301 50.8273L141.493 44.8926C141.326 45.2502 141.074 45.5568 140.738 45.8125C140.412 46.0499 140.087 46.2178 139.765 46.3161C138.811 46.6067 137.994 46.5182 137.315 46.0505C136.646 45.5644 136.157 44.8163 135.849 43.8062L133.951 37.5769L136.266 36.8716L138.106 42.9115C138.256 43.4026 138.5 43.7267 138.84 43.884C139.179 44.0413 139.531 44.0644 139.896 43.9533C140.261 43.8422 140.51 43.6283 140.643 43.3116C140.786 42.9767 140.783 42.5636 140.634 42.0726L138.813 36.0958L141.128 35.3905ZM148.563 42.8077L148.258 44.3725L149.636 48.8972L147.321 49.6025L142.833 34.871L145.148 34.1657L147.104 40.5844L148.179 33.2425L150.494 32.5372L149.274 40.0842L154.982 47.2687L152.604 47.9932L148.563 42.8077ZM163.527 44.6653L161.191 45.3769L159.977 42.826L157.136 43.6916L157.55 46.4861L155.425 47.1337L153.294 31.6841L156.682 30.6518L163.527 44.6653ZM156.822 41.6025L159.052 40.9229L155.667 33.8128L156.822 41.6025Z" fill="#FF5F04"/>
<path d="M192.814 64.0616C193.347 63.8992 193.693 63.6786 193.854 63.3997C193.996 63.1111 194.011 62.7844 193.9 62.4197C193.789 62.0549 193.596 61.7993 193.322 61.653C193.029 61.4969 192.616 61.5001 192.083 61.6625L184.128 64.086C183.594 64.2484 183.257 64.474 183.115 64.7625C182.954 65.0414 182.93 65.3632 183.041 65.728C183.152 66.0928 183.354 66.3532 183.647 66.5093C183.922 66.6556 184.325 66.6476 184.859 66.4852L192.814 64.0616ZM185.711 68.7552C184.519 69.1185 183.515 69.0947 182.7 68.6838C181.87 68.2771 181.283 67.5056 180.936 66.3691C180.59 65.2327 180.648 64.2645 181.11 63.4646C181.557 62.669 182.377 62.0895 183.57 61.7262L191.23 59.3924C192.423 59.0291 193.433 59.0508 194.263 59.4575C195.078 59.8684 195.659 60.6421 196.005 61.7785C196.351 62.915 196.3 63.881 195.853 64.6766C195.391 65.4765 194.564 66.0581 193.372 66.4215L185.711 68.7552ZM185.921 59.4807L184.639 55.2717L186.744 54.6306L188.026 58.8396L185.921 59.4807ZM188.543 50.0453C189.077 49.8829 189.423 49.6623 189.584 49.3834C189.726 49.0948 189.741 48.7681 189.63 48.4034C189.519 48.0386 189.326 47.783 189.052 47.6367C188.759 47.4806 188.346 47.4838 187.813 47.6462L179.857 50.0697C179.324 50.2321 178.987 50.4576 178.845 50.7462C178.684 51.0251 178.66 51.3469 178.771 51.7117C178.882 52.0764 179.084 52.3369 179.377 52.493C179.651 52.6393 180.055 52.6313 180.588 52.4688L188.543 50.0453ZM181.441 54.7389C180.248 55.1022 179.245 55.0784 178.429 54.6675C177.6 54.2608 177.013 53.4892 176.666 52.3528C176.32 51.2164 176.378 50.2482 176.839 49.4483C177.287 48.6527 178.107 48.0732 179.3 47.7099L186.96 45.3761C188.152 45.0128 189.163 45.0345 189.993 45.4411C190.808 45.8521 191.388 46.6258 191.735 47.7622C192.081 48.8986 192.03 49.8647 191.583 50.6603C191.121 51.4602 190.294 52.0418 189.101 52.4051L181.441 54.7389ZM181.651 45.4644L180.369 41.2554L182.473 40.6142L183.756 44.8232L181.651 45.4644ZM174.994 39.615C174.857 39.1661 174.697 38.8163 174.513 38.5656C174.325 38.3009 174.119 38.103 173.895 37.9719C173.671 37.8408 173.43 37.7533 173.171 37.7094C172.912 37.6656 172.644 37.64 172.366 37.6328L171.891 36.0755L186.623 31.5875L187.328 33.9024L176.09 37.3261L176.635 39.115L174.994 39.615ZM173.258 27.5757C172.598 27.7766 172.19 28.0235 172.034 28.3163C171.86 28.5995 171.828 28.9234 171.939 29.2882C172.051 29.653 172.253 29.9134 172.545 30.0695C172.82 30.2158 173.224 30.2078 173.757 30.0454L175.335 29.5645L176.002 31.7532L174.571 32.1892C173.379 32.5525 172.379 32.5427 171.572 32.1598C170.747 31.7672 170.162 31.0026 169.816 29.8662C169.469 28.7298 169.531 27.7756 170.002 27.0038C170.453 26.2222 171.276 25.6497 172.468 25.2864C173.24 25.0513 173.975 24.9498 174.675 24.982C175.361 25.0184 176.017 25.1329 176.643 25.3255C177.25 25.5083 177.834 25.7369 178.393 26.0113C178.947 26.2716 179.474 26.5174 179.974 26.7484C180.469 26.9655 180.941 27.1285 181.388 27.2376C181.821 27.3509 182.241 27.3456 182.648 27.2217C182.788 27.1789 182.891 27.1399 182.957 27.1045L181.624 22.7271L183.728 22.086L185.767 28.7783L183.957 29.3297C183.242 29.5476 182.576 29.6278 181.961 29.57C181.345 29.5122 180.761 29.3833 180.21 29.1834C179.64 28.9737 179.099 28.7323 178.586 28.4591C178.06 28.1902 177.521 27.9558 176.969 27.7559C176.413 27.5419 175.835 27.4039 175.233 27.3418C174.632 27.2797 173.973 27.3577 173.258 27.5757Z" fill="#FF5F04"/>
<path d="M38.2627 117.236L31.7347 95.8084L41.1629 92.9361L42.0954 95.9972L36.0345 97.8437L37.7038 103.323L39.6629 102.726C41.3567 102.21 42.7587 102.274 43.869 102.917C44.9996 103.554 45.8292 104.739 46.3577 106.474L47.0571 108.77C47.5856 110.504 47.558 111.951 46.9745 113.11C46.4113 114.263 45.2828 115.097 43.589 115.613L38.2627 117.236ZM42.6565 112.552C43.187 112.391 43.5619 112.12 43.7809 111.741C44 111.362 43.9914 110.785 43.7552 110.01L42.9252 107.285C42.6889 106.51 42.3742 106.026 41.9811 105.834C41.5879 105.641 41.1261 105.626 40.5955 105.787L38.6364 106.384L40.6974 113.149L42.6565 112.552ZM50.5271 99.9516L55.1494 98.5434L56.082 101.605L51.4597 103.013L53.3715 109.288L59.1876 107.516L60.1201 110.577L50.9369 113.375L44.4088 91.9472L53.5921 89.1495L54.5247 92.2106L48.7086 93.9825L50.5271 99.9516ZM63.7722 91.8018C63.48 90.8427 63.1209 90.2496 62.6949 90.0225C62.2831 89.7689 61.8119 89.7229 61.2813 89.8845C60.7508 90.0462 60.3719 90.34 60.1449 90.766C59.9116 91.1716 59.9131 91.7621 60.1494 92.5376L60.681 94.2824L57.5892 95.2243L57.1043 93.6325C56.5758 91.8979 56.583 90.4573 57.1257 89.3107C57.6827 88.1374 58.7876 87.299 60.4406 86.7954C62.0936 86.2919 63.4814 86.382 64.6041 87.0658C65.741 87.723 66.5737 88.9189 67.1021 90.6535L67.27 91.2045C67.9663 93.4902 67.6283 95.1988 66.2559 96.3306C67.2249 96.4368 68.001 96.8248 68.5841 97.4946C69.1815 98.1378 69.6481 99.0103 69.9838 100.112L70.4967 101.796C71.0252 103.531 71.0038 104.998 70.4327 106.198C69.8758 107.371 68.7708 108.209 67.1178 108.713C65.4649 109.216 64.0699 109.14 62.933 108.482C61.8103 107.799 60.9848 106.589 60.4563 104.855L59.7382 102.498L62.9218 101.528L63.7051 104.099C63.9414 104.875 64.2623 105.379 64.6679 105.612C65.0877 105.819 65.5628 105.841 66.0934 105.68C66.624 105.518 66.9926 105.227 67.1993 104.808C67.4263 104.382 67.3937 103.689 67.1015 102.73L66.5886 101.046C66.284 100.046 65.896 99.3952 65.4247 99.0927C64.9535 98.7903 64.3301 98.7572 63.5546 98.9934L62.7281 99.2452L61.7956 96.1841L62.8057 95.8764C63.4383 95.6836 63.8784 95.3712 64.1258 94.939C64.3937 94.5005 64.3971 93.8528 64.1359 92.9957L63.7722 91.8018ZM82.4637 103.77L79.0965 104.796L72.5685 83.3682L83.1905 80.1322L89.7185 101.56L86.2901 102.604L80.6947 84.2378L76.8683 85.4035L82.4637 103.77ZM91.7503 87.3928L96.3725 85.9846L97.3051 89.0457L92.6828 90.4539L94.5946 96.7291L100.411 94.9572L101.343 98.0183L92.16 100.816L85.632 79.3884L94.8153 76.5907L95.7478 79.6518L89.9317 81.4237L91.7503 87.3928ZM101.861 74.4442C103.555 73.9282 104.946 73.9948 106.036 74.644C107.147 75.287 107.966 76.4759 108.494 78.2105L109.343 80.9961C109.871 82.7307 109.854 84.1744 109.291 85.3272C108.748 86.4739 107.63 87.3052 105.936 87.8212L104.344 88.3061L106.797 96.3568L103.43 97.3827L96.9018 75.955L101.861 74.4442ZM101.202 77.9902L103.412 85.245L105.004 84.7601C105.534 84.5985 105.899 84.3313 106.097 83.9585C106.296 83.5858 106.277 83.0117 106.041 82.2362L105.062 79.022C104.826 78.2466 104.521 77.7595 104.148 77.5608C103.776 77.3622 103.324 77.3437 102.793 77.5053L101.202 77.9902ZM114.559 80.444L119.181 79.0358L120.114 82.0969L115.492 83.5051L117.403 89.7803L123.219 88.0085L124.152 91.0695L114.969 93.8673L108.441 72.4396L117.624 69.6419L118.557 72.703L112.74 74.4749L114.559 80.444ZM129.606 89.408L126.239 90.4339L119.711 69.0062L130.333 65.7702L136.861 87.1978L133.432 88.2423L127.837 69.8757L124.01 71.0415L129.606 89.408ZM137.43 83.7126C137.818 83.5945 138.128 83.4777 138.36 83.3623C138.613 83.2407 138.799 83.0836 138.919 82.891C139.033 82.678 139.076 82.4193 139.051 82.115C139.039 81.784 138.969 81.3705 138.84 80.8745L134.458 64.5134L143.978 61.6131L150.506 83.0408L147.077 84.0853L141.482 65.7187L138.543 66.614L142.121 79.6743C142.656 81.6521 142.664 83.1774 142.143 84.2504C141.643 85.3171 140.556 86.1054 138.883 86.6152L138.362 86.7737L137.43 83.7126ZM163.98 78.9356L160.583 79.9708L158.817 76.2604L154.684 77.5194L155.287 81.5841L152.195 82.5261L149.096 60.0539L154.024 58.5525L163.98 78.9356ZM154.227 74.4808L157.472 73.4922L152.548 63.1502L154.227 74.4808ZM158.041 57.3287L168.449 54.1579L169.381 57.219L165.861 58.2915L171.456 76.658L168.089 77.6839L162.494 59.3173L158.974 60.3898L158.041 57.3287Z" fill="#FF5F04"/>
</svg>
