<svg width="274" height="39" viewBox="0 0 274 39" fill="none" xmlns="http://www.w3.org/2000/svg">
<path d="M65.434 34.7839C66.059 35.0461 66.5547 35.6918 66.5547 36.4988C66.5547 37.8506 65.628 38.8594 63.5589 38.8594H59.3777V30.7285H63.4512C65.3693 30.7285 66.2961 31.7171 66.2961 32.8873C66.2961 33.6137 65.9513 34.2189 65.4125 34.5014V34.7839H65.434ZM63.2356 33.9567C64.0546 33.9567 64.4426 33.654 64.4426 33.0487C64.4426 32.4435 64.0331 32.1408 63.2141 32.1408H61.2097V33.9567H63.2356ZM63.3003 37.4067C64.2055 37.4067 64.7012 37.0839 64.7012 36.3979C64.7012 35.712 64.2486 35.369 63.3218 35.369H61.2097V37.4067H63.3003Z" fill="#FF5F04"/>
<path d="M75.3914 36.6602H72.0939L71.3826 38.8594H69.5938L72.3525 30.7285H75.1544L77.9347 38.8594H76.0811L75.3914 36.6602ZM72.5465 35.1874H74.8957L73.9905 32.3628H73.4517L72.5465 35.1874Z" fill="#FF5F04"/>
<path d="M81.3399 30.7285H84.1202L85.5427 33.997H85.866L87.2669 30.7285H90.0688V38.8594H88.3661V32.8066H88.0428L86.5772 36.0751H84.7668L83.3228 32.8066H82.9995V38.8594H81.3184V30.7285H81.3399Z" fill="#FF5F04"/>
<path d="M105.608 32.2215H102.914V38.8594H101.104V32.2215H98.4097V30.7285H105.608V32.2215Z" fill="#FF5F04"/>
<path d="M116.967 34.8034C116.967 37.1842 115.501 39.0202 112.742 39.0202C109.984 39.0202 108.518 37.2044 108.518 34.8034C108.518 32.4025 109.984 30.5867 112.742 30.5867C115.501 30.5867 116.967 32.4025 116.967 34.8034ZM115.113 34.8034C115.113 33.3104 114.38 32.0999 112.742 32.0999C111.147 32.0999 110.372 33.2902 110.372 34.8034C110.372 36.3166 111.147 37.507 112.742 37.507C114.359 37.4868 115.113 36.2964 115.113 34.8034Z" fill="#FF5F04"/>
<path d="M122.204 30.7285V33.0487C122.204 33.7145 122.225 34.4005 124.014 34.4005C124.51 34.4005 125.027 34.34 125.501 34.2189V30.7285H127.312V38.8594H125.501V35.712C124.919 35.833 124.187 35.9137 123.562 35.9137C120.501 35.9137 120.372 34.6023 120.372 33.311V30.7285H122.204Z" fill="#FF5F04"/>
<path d="M138.972 30.7285V38.8594H137.162V35.4497H133.325V38.8594H131.515V30.7285H133.325V33.8961H137.162V30.7285H138.972Z" fill="#FF5F04"/>
<path d="M151.214 34.8034C151.214 37.1842 149.748 39.0202 146.989 39.0202C144.231 39.0202 142.765 37.2044 142.765 34.8034C142.765 32.4025 144.231 30.5867 146.989 30.5867C149.727 30.5867 151.214 32.4025 151.214 34.8034ZM149.339 34.8034C149.339 33.3104 148.606 32.0999 146.968 32.0999C145.373 32.0999 144.597 33.2902 144.597 34.8034C144.597 36.3166 145.373 37.507 146.968 37.507C148.606 37.4868 149.339 36.2964 149.339 34.8034Z" fill="#FF5F04"/>
<path d="M167.917 30.7285V38.8594H166.107V32.2417H162.357V38.8594H160.568V30.7285H167.917Z" fill="#FF5F04"/>
<path d="M180.159 34.8034C180.159 37.1842 178.694 39.0202 175.935 39.0202C173.176 39.0202 171.711 37.2044 171.711 34.8034C171.711 32.4025 173.176 30.5867 175.935 30.5867C178.694 30.5867 180.159 32.4025 180.159 34.8034ZM178.306 34.8034C178.306 33.3104 177.573 32.0999 175.935 32.0999C174.34 32.0999 173.564 33.2902 173.564 34.8034C173.564 36.3166 174.34 37.507 175.935 37.507C177.573 37.4868 178.306 36.2964 178.306 34.8034Z" fill="#FF5F04"/>
<path d="M191.41 30.7285V38.8594H189.599V35.4497H185.763V38.8594H183.952V30.7285H185.763V33.8961H189.599V30.7285H191.41Z" fill="#FF5F04"/>
<path d="M199.557 30.7277C201.54 30.7277 202.682 31.676 202.682 33.3102C202.682 34.9646 201.54 35.9331 199.557 35.9331H197.402V38.8384H195.591V30.7075H199.557V30.7277ZM199.32 34.4602C200.44 34.4602 200.85 34.0567 200.85 33.3506C200.85 32.6242 200.44 32.2409 199.32 32.2409H197.423V34.4804H199.32V34.4602Z" fill="#FF5F04"/>
<path d="M210.764 36.6602H207.467L206.755 38.8594H204.967L207.725 30.7285H210.527L213.307 38.8594H211.475L210.764 36.6602ZM207.919 35.1874H210.269L209.363 32.3628H208.824L207.919 35.1874Z" fill="#FF5F04"/>
<path d="M222.747 34.7839C223.372 35.0461 223.868 35.6918 223.868 36.4988C223.868 37.8506 222.941 38.8594 220.872 38.8594H216.691V30.7285H220.765C222.683 30.7285 223.61 31.7171 223.61 32.8873C223.61 33.6137 223.265 34.2189 222.726 34.5014V34.7839H222.747ZM220.571 33.9567C221.39 33.9567 221.778 33.654 221.778 33.0487C221.778 32.4435 221.368 32.1408 220.549 32.1408H218.523V33.9567H220.571ZM220.614 37.4067C221.519 37.4067 222.015 37.0839 222.015 36.3979C222.015 35.712 221.562 35.369 220.635 35.369H218.502V37.4067H220.614Z" fill="#FF5F04"/>
<path d="M229.386 30.7285V36.3979H229.709L232.834 30.7285H235.27V38.8594H233.567V33.0689H233.244L230.054 38.8594H227.705V30.7285H229.386Z" fill="#FF5F04"/>
<path d="M245.852 32.2215H243.158V38.8594H241.347V32.2215H238.653V30.7285H245.852V32.2215Z" fill="#FF5F04"/>
<path d="M256.521 36.2562C256.262 37.8703 254.926 39.0002 252.9 39.0002C250.249 39.0002 248.74 37.2852 248.74 34.7834C248.74 32.2816 250.249 30.5667 252.9 30.5667C254.818 30.5667 256.154 31.5956 256.434 33.0886H254.538C254.322 32.4228 253.783 32.0798 252.9 32.0798C251.348 32.0798 250.594 33.2702 250.594 34.7834C250.594 36.2966 251.326 37.487 252.9 37.487C253.826 37.487 254.451 37.0229 254.645 36.2562H256.521Z" fill="#FF5F04"/>
<path d="M267.06 30.7285V38.8594H265.249V35.7927H262.9L261.736 38.8594H259.904L261.197 35.4295C260.378 35.026 259.904 34.2593 259.904 33.2505C259.904 31.6566 261.025 30.7285 262.965 30.7285H267.06ZM265.249 32.2215H263.417C262.21 32.2215 261.779 32.5242 261.779 33.2707C261.779 33.9567 262.167 34.34 263.245 34.34H265.271V32.2215H265.249Z" fill="#FF5F04"/>
<path d="M271.414 38.8594V37.1243H273.267V38.8594H271.414ZM273.181 30.7285V34.0374L272.858 36.4181H271.78L271.457 34.0374V30.7285H273.181Z" fill="#FF5F04"/>
<path d="M20.8414 4.27716C23.514 3.34907 25.7555 2.27975 28.1478 1.8157C34.4197 0.564799 41.1872 5.14473 42.3295 11.0966C43.1054 15.2125 42.0062 18.8038 38.9242 21.7495C33.6653 26.7531 28.3202 31.676 22.9752 36.6191C21.7467 37.7691 20.7983 37.7691 19.5914 36.6393C14.2032 31.6155 8.72881 26.6522 3.51305 21.4872C-0.258682 17.7345 -0.969922 13.1949 1.27156 8.53428C3.49149 3.89382 7.65117 1.63412 13.0178 1.59377C16.1645 1.55342 18.9232 2.7438 20.8414 4.27716ZM21.0139 32.8462C21.3803 32.7252 21.488 32.705 21.5527 32.6445C26.5098 28.004 31.51 23.3636 36.4241 18.6827C37.825 17.3511 38.45 15.5958 38.5362 13.7598C38.7087 10.4712 36.5534 7.3439 33.342 6.03247C29.8936 4.64033 26.3158 5.34649 23.4493 8.02988C21.7036 9.66413 20.9923 9.6843 19.2681 8.09041C17.5439 6.45616 15.5179 5.44736 13.0609 5.36666C9.59091 5.24561 6.3149 7.16232 4.89242 10.108C3.40528 13.2151 4.07342 16.7055 6.78906 19.3082C9.93576 22.3346 13.1471 25.2803 16.3154 28.2865C17.9318 29.7997 19.5052 31.3734 21.0139 32.8462Z" fill="#FF5F04"/>
<path d="M128.433 5.14491C132.226 4.84227 132.226 4.84227 133.885 7.8283C134.898 9.64413 135.911 11.4801 136.924 13.296C136.967 13.3767 137.075 13.417 137.248 13.5381C138.519 11.2582 139.899 9.01867 141.041 6.69845C141.687 5.38702 142.485 4.82209 143.994 5.0642C144.532 5.14491 145.114 5.08438 145.782 5.08438C145.782 10.9152 145.782 16.6048 145.782 22.3953C144.791 22.3953 143.864 22.3953 142.744 22.3953C142.744 20.3777 142.744 18.3803 142.744 16.403C142.744 14.3855 142.744 12.388 142.744 10.3705C142.657 10.3301 142.571 10.2898 142.485 10.2494C141.925 11.2178 141.343 12.2065 140.782 13.1749C140.049 14.4662 139.381 15.7978 138.541 17.0487C138.239 17.4925 137.549 17.8961 137.032 17.9364C136.579 17.9566 135.911 17.4925 135.674 17.0689C134.316 14.8092 133.066 12.5091 131.515 10.2696C131.515 14.2846 131.515 18.2794 131.515 22.3751C130.415 22.3751 129.489 22.3751 128.454 22.3751C128.433 16.6653 128.433 10.9556 128.433 5.14491Z" fill="#FF5F04"/>
<path d="M263.31 6.73857C263.31 5.97188 263.31 5.30608 263.31 4.55957C264.344 4.55957 265.249 4.55957 266.349 4.55957C266.392 5.24555 266.413 5.95171 266.456 6.71839C268.806 6.98068 271.176 7.30349 272.577 9.2202C273.332 10.2492 273.827 11.601 273.935 12.8519C274.301 17.1695 273.03 19.752 266.478 20.7608C266.435 21.4266 266.413 22.0924 266.37 22.8995C265.422 22.8995 264.452 22.8995 263.396 22.8995C263.353 22.2337 263.31 21.5678 263.267 20.7608C260.788 20.2766 258.115 19.974 256.607 17.6134C255.464 15.8379 255.508 13.8808 255.766 11.9238C256.154 8.91756 258.719 7.14208 263.31 6.73857ZM263.245 9.36143C260.077 9.70442 258.762 11.1369 258.891 13.9414C259.021 16.5642 260.465 17.916 263.245 17.9362C263.245 15.1116 263.245 12.2869 263.245 9.36143ZM266.543 9.44214C266.543 12.3676 266.543 15.1721 266.543 17.9967C269.538 17.6941 270.788 16.3423 270.702 13.5984C270.638 10.8544 269.366 9.56319 266.543 9.44214Z" fill="#FF5F04"/>
<path d="M95.8451 5.14465C95.8451 9.26053 95.8451 13.2957 95.8451 17.3511C95.9313 17.3712 96.0391 17.3914 96.1253 17.4318C97.1814 15.5554 98.2374 13.679 99.272 11.8027C100.263 10.0272 101.319 8.27191 102.203 6.45608C102.742 5.36658 103.453 4.88236 104.725 5.04377C105.436 5.14465 106.19 5.06395 107.031 5.06395C107.031 10.8342 107.031 16.544 107.031 22.3345C106.126 22.3345 105.199 22.3345 104.121 22.3345C104.121 18.0774 104.121 13.7799 104.121 9.50264C104.014 9.48246 103.927 9.44211 103.82 9.42194C103.561 9.80528 103.302 10.1684 103.065 10.572C101.19 13.901 99.2289 17.1896 97.5046 20.5994C96.7718 22.052 95.8882 22.738 94.1855 22.4556C93.776 22.395 93.345 22.4354 92.8062 22.4354C92.8062 16.6651 92.8062 10.9553 92.8062 5.14465C93.7545 5.14465 94.6812 5.14465 95.8451 5.14465Z" fill="#FF5F04"/>
<path d="M165.611 22.4357C165.611 16.5241 165.611 10.8547 165.611 5.12476C169.728 5.12476 173.736 5.12476 177.853 5.12476C177.875 5.60898 177.896 6.05285 177.939 6.47654C178.047 7.36428 177.638 7.68709 176.689 7.66692C174.642 7.60639 172.594 7.64674 170.547 7.64674C170.029 7.64674 169.534 7.68709 168.93 7.70727C168.93 9.09941 168.93 10.3907 168.93 11.7626C170.525 11.8837 172.077 11.9644 173.607 12.1056C177.336 12.4486 179.189 14.1636 179.189 17.2303C179.189 20.176 177.228 22.0523 173.542 22.355C171.409 22.5164 169.253 22.3953 167.098 22.4155C166.646 22.4357 166.193 22.4357 165.611 22.4357ZM168.93 19.9339C170.741 19.7725 172.465 19.7725 174.124 19.4496C175.396 19.2075 175.892 18.1382 175.784 16.9478C175.698 15.7978 175.051 14.9706 173.801 14.8092C172.228 14.5873 170.611 14.5267 168.93 14.3855C168.93 16.282 168.93 17.9163 168.93 19.9339Z" fill="#FF5F04"/>
<path d="M196.755 19.9335C198.651 20.1151 199.578 19.7116 199.966 17.9563C200.483 15.6361 200.764 13.2351 200.958 10.8544C201.109 8.99821 200.979 7.14203 200.979 5.16479C204.751 5.16479 208.393 5.16479 212.165 5.16479C212.165 10.8342 212.165 16.544 212.165 22.3345C211.195 22.3345 210.225 22.3345 209.062 22.3345C209.062 17.5326 209.062 12.6904 209.062 7.76748C207.424 7.76748 205.979 7.76748 204.492 7.76748C204.255 10.3702 204.147 12.9527 203.76 15.515C203.522 17.0484 203.07 18.5818 202.402 19.9941C201.13 22.6775 199.061 23.3231 196 22.1932C196.108 21.8099 196.173 21.3862 196.302 20.9827C196.432 20.6397 196.604 20.2765 196.755 19.9335Z" fill="#FF5F04"/>
<path d="M59.6579 5.104C63.4943 5.104 67.0936 5.104 70.8438 5.104C70.8438 10.8138 70.8438 16.5236 70.8438 22.3342C69.8523 22.3342 68.8394 22.3342 67.6324 22.3342C67.6324 17.5122 67.6324 12.67 67.6324 7.76722C66.016 7.76722 64.5719 7.76722 63.0632 7.76722C62.8693 10.2892 62.8046 12.791 62.4598 15.2525C62.2227 16.8666 61.7485 18.521 61.0588 20.014C59.8088 22.6974 57.7182 23.343 54.593 22.1728C54.8517 21.4263 55.1318 20.6596 55.3905 19.9131C57.2224 20.1149 58.1708 19.7315 58.5803 18.0569C59.1191 15.8779 59.4424 13.6384 59.6364 11.4191C59.7872 9.3813 59.6579 7.32335 59.6579 5.104Z" fill="#FF5F04"/>
<path d="M73.4731 22.4353C75.5207 16.7659 77.4604 11.3184 79.4864 5.8911C79.6157 5.52793 80.2407 5.12442 80.6718 5.08406C83.8616 4.86213 83.8616 4.88231 84.8745 7.68675C86.6203 12.529 88.3876 17.3712 90.1765 22.2941C89.8963 22.3546 89.7023 22.4152 89.5084 22.4152C86.8574 22.4959 86.7927 22.516 86.0384 20.1151C85.6504 18.9046 85.0901 18.2387 83.646 18.501C83.1934 18.5817 82.6977 18.501 82.2236 18.5212C80.9735 18.5414 79.4432 18.158 78.538 18.6826C77.6759 19.187 77.5466 20.68 76.9647 21.6888C76.7707 22.0116 76.275 22.3345 75.8871 22.395C75.1758 22.516 74.443 22.4353 73.4731 22.4353ZM81.7925 8.25168C80.8442 10.9149 80.0036 13.2351 79.1415 15.6159C80.9088 15.6159 82.5037 15.6159 84.3357 15.6159C83.5167 13.215 82.7193 10.9351 81.7925 8.25168Z" fill="#FF5F04"/>
<path d="M194.319 5.14478C194.319 6.03251 194.319 6.77902 194.319 7.66676C191.539 7.66676 188.78 7.66676 185.957 7.66676C185.957 9.11942 185.957 10.4309 185.957 11.944C188.263 11.944 190.591 11.944 193.005 11.944C193.005 12.9528 193.005 13.7599 193.005 14.7485C190.677 14.7485 188.349 14.7485 185.935 14.7485C185.935 16.4231 185.935 17.9161 185.935 19.6109C188.694 19.6109 191.431 19.6109 194.276 19.6109C194.276 20.6197 194.276 21.4267 194.276 22.3548C190.418 22.3548 186.582 22.3548 182.595 22.3548C182.595 16.645 182.595 10.9554 182.595 5.16495C186.496 5.14478 190.354 5.14478 194.319 5.14478Z" fill="#FF5F04"/>
<path d="M124.618 5.06378C123.821 8.25157 123.131 11.2981 120.458 13.5175C123.907 15.5754 124.144 19.1062 125.2 22.3747C123.993 22.3747 122.958 22.3747 121.816 22.3747C121.407 21.0834 121.04 19.772 120.588 18.4807C119.424 15.2324 118.605 14.7684 114.768 15.1114C114.768 17.4719 114.768 19.8527 114.768 22.3343C113.648 22.3343 112.678 22.3343 111.579 22.3343C111.579 16.6246 111.579 10.935 111.579 5.14448C112.57 5.14448 113.54 5.14448 114.704 5.14448C114.704 7.48488 114.704 9.80511 114.704 12.1052C117.937 12.5894 118.734 12.206 119.79 9.62353C120.178 8.67526 120.566 7.68664 120.76 6.69802C121.019 5.40677 121.622 4.80149 123.066 5.06378C123.519 5.1243 123.993 5.06378 124.618 5.06378Z" fill="#FF5F04"/>
<path d="M150.309 5.104C154.188 5.104 157.938 5.104 161.818 5.104C161.818 5.93122 161.818 6.71808 161.818 7.68652C159.081 7.68652 156.322 7.68652 153.498 7.68652C153.498 9.13918 153.498 10.4506 153.498 11.9436C155.869 11.9436 158.197 11.9436 160.589 11.9436C160.589 12.9524 160.589 13.7595 160.589 14.7481C158.24 14.7481 155.912 14.7481 153.498 14.7481C153.498 16.4227 153.498 17.9157 153.498 19.6105C156.279 19.6105 159.016 19.6105 161.839 19.6105C161.839 20.6193 161.839 21.4263 161.839 22.3544C158.046 22.3544 154.231 22.3544 150.287 22.3544C150.309 16.6446 150.309 10.955 150.309 5.104Z" fill="#FF5F04"/>
<path d="M243.762 16.8265C243.762 18.7835 243.762 20.5388 243.762 22.3546C242.705 22.3546 241.8 22.3546 240.744 22.3546C240.744 16.665 240.744 10.9553 240.744 5.12444C243.481 5.12444 246.283 4.86215 248.977 5.18497C252.49 5.60866 254.215 8.63504 253.439 12.3474C252.835 15.2326 250.982 16.7054 247.749 16.8063C246.499 16.8668 245.249 16.8265 243.762 16.8265ZM243.869 7.72713C243.869 9.9263 243.869 12.0044 243.869 14.2036C245.938 14.0624 248.309 14.7483 249.538 12.9325C250.184 11.9641 250.163 9.98683 249.516 8.97803C248.288 7.06132 245.917 7.82801 243.869 7.72713Z" fill="#FF5F04"/>
<path d="M219.859 5.14478C219.859 7.24307 219.859 9.24048 219.859 11.2984C221.39 11.3791 222.769 11.48 224.17 11.5405C227.877 11.7019 229.838 13.4371 229.903 16.6248C229.989 20.0951 228.093 22.153 224.321 22.3951C221.821 22.5566 219.321 22.4153 216.691 22.4153C216.691 16.6248 216.691 10.9353 216.691 5.14478C217.683 5.14478 218.652 5.14478 219.859 5.14478ZM219.903 19.9135C221.562 19.7723 223.071 19.7319 224.536 19.4696C225.959 19.2074 226.498 18.1784 226.476 16.8468C226.476 15.5757 226.023 14.5467 224.644 14.3248C223.092 14.1029 221.497 14.1432 219.903 14.0827C219.903 16.1205 219.903 17.8556 219.903 19.9135Z" fill="#FF5F04"/>
<path d="M95.651 0.0603132C96.8364 0.100665 98.0865 -0.484436 98.8408 1.19016C99.4227 2.5016 101.147 1.87614 101.966 0.080489C102.828 0.080489 103.69 0.080489 104.574 0.080489C104.574 2.23931 102.871 3.42969 99.9831 3.40951C97.1812 3.36916 95.5432 2.13843 95.651 0.0603132Z" fill="#FF5F04"/>
<path d="M234.386 19.1469C235.873 19.1267 236.563 19.5504 236.563 20.8618C236.584 22.1733 235.808 22.6373 234.644 22.6575C233.459 22.6575 232.683 22.1733 232.683 20.882C232.705 19.6311 233.33 19.0863 234.386 19.1469Z" fill="#FF5F04"/>
<path d="M5.81909 13.699C5.81909 8.63482 11.703 5.32598 16.423 7.74708C17.9317 8.51377 18.4274 9.52256 17.8671 10.5717C17.2636 11.6612 16.2075 11.8428 14.6342 11.1366C12.9962 10.4103 11.703 10.6322 10.5822 11.8831C9.59082 12.9726 9.59082 14.2639 10.6469 15.6359C11.4228 16.6446 11.5521 17.6131 10.5176 18.5008C9.63393 19.2473 8.34076 19.1263 7.54331 17.9763C6.65965 16.7253 5.81909 14.6876 5.81909 13.699Z" fill="#FF5F04"/>
</svg>
