<svg width="26" height="29" viewBox="0 0 26 29" fill="none" xmlns="http://www.w3.org/2000/svg">
<g clip-path="url(#clip0)">
<path d="M23.4571 14.4399H2.54286C1.68571 14.4399 1 13.7612 1 12.9127V9.48479C1 8.63631 1.68571 7.95752 2.54286 7.95752H23.4914C24.3486 7.95752 25.0343 8.63631 25.0343 9.48479V12.9127C25 13.7272 24.3143 14.4399 23.4571 14.4399ZM2.54286 9.24722C2.40571 9.24722 2.33714 9.34903 2.33714 9.45085V12.8787C2.33714 13.0145 2.44 13.0824 2.54286 13.0824H23.4914C23.6286 13.0824 23.6971 12.9805 23.6971 12.8787V9.48479C23.6971 9.34903 23.5943 9.28116 23.4914 9.28116H2.54286V9.24722Z" fill="#FF7905"/>
<path d="M21.5715 29.0001H4.4286C3.57146 29.0001 2.88574 28.3213 2.88574 27.4729V13.965C2.88574 13.5916 3.19431 13.3201 3.53717 13.3201C3.91431 13.3201 4.1886 13.6256 4.1886 13.965V27.5068C4.1886 27.6426 4.29146 27.7104 4.39431 27.7104H21.5372C21.6743 27.7104 21.7429 27.6086 21.7429 27.5068V13.965C21.7429 13.5916 22.0515 13.3201 22.3943 13.3201C22.7715 13.3201 23.0457 13.6256 23.0457 13.965V27.5068C23.1143 28.3213 22.4286 29.0001 21.5715 29.0001Z" fill="#FF7905"/>
<path d="M18.2114 9.07772C18.2114 9.07772 20.4057 9.38317 22.0514 7.6862C23.6972 5.98923 23.7657 4.97105 23.1143 4.29226C22.4629 3.61348 22.12 2.90075 22.1543 2.32378C22.1886 1.74681 22.2914 1.10196 20.44 1.00014C18.5886 0.898324 16.1886 1.84863 13.8229 5.41226H13H12.1429C9.81145 1.84863 7.37716 0.898324 5.52573 1.00014C3.6743 1.10196 3.77716 1.74681 3.81145 2.32378C3.84573 2.90075 3.50287 3.61348 2.85145 4.29226C2.20002 4.97105 2.2343 5.98923 3.9143 7.6862C5.56002 9.38317 7.7543 9.07772 7.7543 9.07772C4.70287 10.1298 3.1943 14.1686 3.1943 14.1686L6.96573 16.8498C8.68002 11.6911 11.4229 9.34923 11.4229 9.34923H13H14.5429C14.5429 9.34923 17.2857 11.725 19 16.8498L22.7714 14.1686C22.7714 14.1686 21.2629 10.1298 18.2114 9.07772ZM10.6 7.48257C10.6 7.48257 7.0343 5.34438 3.88002 5.10681C3.88002 5.10681 4.8743 4.19044 4.90859 2.56135C4.90859 2.56135 7.48002 1.27166 11.1143 5.7856C11.1486 5.7856 10.4286 6.46438 10.6 7.48257ZM14.2686 7.88984H13H11.7314C11.2514 6.97347 11.8686 6.36257 11.8686 6.36257H13H14.0972C14.0972 6.36257 14.7486 6.97347 14.2686 7.88984ZM14.8514 5.7856C18.52 1.3056 21.0914 2.59529 21.0914 2.59529C21.1257 4.22438 22.12 5.14075 22.12 5.14075C18.9657 5.34438 15.4 7.51651 15.4 7.51651C15.5714 6.46438 14.8514 5.7856 14.8514 5.7856Z" fill="#FF7905"/>
<path d="M14.7487 13.9312H11.2173V28.1518H14.7487V13.9312Z" fill="#FF7905"/>
<path d="M14.7487 8.94226H11.2173V13.7277H14.7487V8.94226Z" fill="#FF7905"/>
</g>
<defs>
<clipPath id="clip0">
<rect width="24" height="28" fill="white" transform="translate(1 1)"/>
</clipPath>
</defs>
</svg>
